# xmcd
# 
# Track frame offsets:
#     150
#     22835
#     44173
#     66808
# 
# Disc length: 1171
# 
# Revision: 3
# Processed by: cddbd v1.5.2PL0 Copyright (c) Steve Scherf et al.
# Submitted via: fre:ac v1.0.31
# 
DISCID=2f049104
DTITLE=S.G.T - センチメンタル・ラブ
DYEAR=1997
DGENRE=Funk
TTITLE0=センチメンタル・ラブ
TTITLE1=雲の向こう
TTITLE2=センチメンタル・ラブ (オリジナル・カラオケ)
TTITLE3=雲の向こう (オリジナル・カラオケ)
EXTD=YEAR: 1997
EXTT0=
EXTT1=
EXTT2=
EXTT3=
PLAYORDER=
